<svg width="25" height="25" viewBox="0 0 25 25" xmlns="http://www.w3.org/2000/svg">
  <title>
    instagram-logo
  </title>
  <g fill="none" fill-rule="evenodd">
    <path d="M12.413 0C5.568 0 0 5.57 0 12.413s5.57 12.413 12.413 12.413 12.413-5.57 12.413-12.413C24.826 5.568 19.258 0 12.413 0z" fill="#3B3D98"/>
    <path d="M19.473 10.964v5.78c0 1.506-1.224 2.73-2.73 2.73h-8.66c-1.506 0-2.73-1.224-2.73-2.73V8.082c0-1.505 1.224-2.728 2.73-2.728h8.66c1.506 0 2.73 1.223 2.73 2.728v2.882z" fill="#FFF"/>
    <path d="M12.412 14.898c1.37 0 2.486-1.114 2.486-2.485 0-.54-.176-1.04-.47-1.45-.45-.624-1.185-1.035-2.014-1.035-.83 0-1.563.41-2.015 1.036-.297.408-.47.907-.473 1.448 0 1.37 1.114 2.486 2.484 2.486zm5.428-5.525V6.98h-.313l-2.082.007.008 2.394 2.386-.006z" fill="#3B3D98"/>
    <path d="M16.274 12.413c0 2.128-1.732 3.86-3.86 3.86-2.13.002-3.862-1.732-3.862-3.86 0-.512.102-1.002.284-1.45l-2.107.002-.003 5.78c0 .746.607 1.35 1.354 1.35l8.66.002c.747 0 1.355-.606 1.355-1.353v-5.78h-2.108c.183.447.287.937.287 1.45z" fill="#3B3D98"/>
  </g>
</svg>
