<?xml version="1.0" encoding="UTF-8" standalone="no"?>
<svg xmlns:sketch="http://www.bohemiancoding.com/sketch/ns" xmlns="http://www.w3.org/2000/svg" height="29px" width="29px" version="1.1" xmlns:xlink="http://www.w3.org/1999/xlink" viewBox="0 0 29 29"><!-- Generator: Sketch 3.3.3 (12081) - http://www.bohemiancoding.com/sketch -->
 <title>fone-topo</title>
 <desc>Created with Sketch.</desc>
 <g id="Page-1" fill-rule="evenodd" sketch:type="MSPage" fill="none">
  <g id="principal" transform="translate(-789 -98)" sketch:type="MSArtboardGroup">
   <g id="11-2283-1509-+-contato@pictoys.com.-+-fone-topo" transform="translate(790 90)" sketch:type="MSLayerGroup">
    <g id="fone-topo" sketch:type="MSShapeGroup" transform="translate(0 9.4514)">
     <ellipse id="Oval-2-Copy-2" rx="13.206" cy="12.91" ry="12.91" stroke="#CD5E6B" cx="13.672" stroke-width="2"/>
     <path id="Path" fill="#CD5E6B" d="m19.359 15.424c-0.834 0-1.65-0.127-2.423-0.377-0.371-0.126-0.827-0.012-1.054 0.218l-1.533 1.132c-1.76-0.918-2.886-2.018-3.812-3.725l1.127-1.463c0.283-0.278 0.385-0.684 0.263-1.064-0.257-0.7606-0.388-1.559-0.388-2.3721 0-0.5747-0.478-1.0423-1.066-1.0423h-2.4878c-0.5878 0-1.0662 0.4676-1.0662 1.0423 0 6.7051 5.581 12.161 12.44 12.161 0.587 0 1.066-0.468 1.066-1.043v-2.425c0-0.574-0.479-1.042-1.066-1.042z"/>
    </g>
   </g>
  </g>
 </g>
</svg>
