<?xml version="1.0" encoding="UTF-8"?>
<svg width="25px" height="25px" viewBox="0 0 25 25" version="1.1" xmlns="http://www.w3.org/2000/svg" xmlns:xlink="http://www.w3.org/1999/xlink" xmlns:sketch="http://www.bohemiancoding.com/sketch/ns">
    <!-- Generator: Sketch 3.3.3 (12081) - http://www.bohemiancoding.com/sketch -->
    <title>twitter-logo-button</title>
    <desc>Created with Sketch.</desc>
    <defs></defs>
    <g id="Page-1" stroke="none" stroke-width="1" fill="none" fill-rule="evenodd" sketch:type="MSPage">
        <g id="principal" sketch:type="MSArtboardGroup" transform="translate(-929.000000, -43.000000)">
            <g id="twitter-logo-button-+-instagram-logo-+-facebook-logo-button" sketch:type="MSLayerGroup" transform="translate(929.000000, 43.000000)">
                <g id="twitter-logo-button" sketch:type="MSShapeGroup">
                    <path d="M12.413,0 C5.5685,0 0,5.5685 0,12.413 C0,19.257 5.5685,24.826 12.413,24.826 C19.257,24.826 24.826,19.257 24.826,12.413 C24.826,5.5685 19.258,0 12.413,0 L12.413,0 Z" id="Shape" fill="#3B3D98"></path>
                    <path d="M17.9505,9.572 C17.956,9.695 17.959,9.819 17.959,9.943 C17.959,13.7185 15.086,18.0705 9.8295,18.0705 C8.216,18.0705 6.714,17.599 5.45,16.788 C5.6735,16.8145 5.901,16.828 6.1315,16.828 C7.4705,16.828 8.702,16.371 9.68,15.605 C8.43,15.582 7.3745,14.756 7.011,13.6205 C7.185,13.6535 7.3645,13.672 7.548,13.672 C7.8085,13.672 8.0615,13.638 8.301,13.5725 C6.994,13.3105 6.0095,12.156 6.0095,10.771 C6.0095,10.759 6.0095,10.7465 6.01,10.735 C6.395,10.9485 6.8355,11.0775 7.3035,11.092 C6.5375,10.5805 6.033,9.7055 6.033,8.7145 C6.033,8.1905 6.1735,7.6995 6.4195,7.2775 C7.828,9.0065 9.934,10.1435 12.308,10.2635 C12.259,10.054 12.2345,9.8365 12.2345,9.612 C12.2345,8.0345 13.5135,6.755 15.091,6.755 C15.913,6.755 16.6545,7.102 17.1765,7.657 C17.828,7.529 18.438,7.292 18.9915,6.9635 C18.7765,7.631 18.325,8.1905 17.7335,8.5445 C18.312,8.4755 18.864,8.3225 19.3745,8.095 C18.9935,8.667 18.509,9.1705 17.9505,9.572 L17.9505,9.572 Z" id="Path" fill="#FFFFFF"></path>
                </g>
            </g>
        </g>
    </g>
</svg>