<svg width="25" height="25" viewBox="0 0 25 25" xmlns="http://www.w3.org/2000/svg">
  <title>
    twitter-logo-button
  </title>
  <g fill="none" fill-rule="evenodd">
    <path d="M0 12.413c0 6.844 5.57 12.413 12.413 12.413s12.413-5.57 12.413-12.413C24.826 5.568 19.258 0 12.413 0 5.568 0 0 5.57 0 12.413z" fill="#FFF"/>
    <path d="M17.95 9.572c.006.123.01.247.01.37 0 3.777-2.874 8.128-8.13 8.128-1.614 0-3.116-.47-4.38-1.282.223.026.45.04.68.04 1.34 0 2.572-.457 3.55-1.223-1.25-.023-2.305-.85-2.67-1.985.175.034.354.052.538.052.26 0 .514-.034.753-.1-1.303-.26-2.29-1.416-2.29-2.8v-.037c.388.213.828.343 1.296.357-.766-.51-1.27-1.386-1.27-2.378 0-.524.14-1.015.386-1.437 1.41 1.73 3.515 2.866 5.89 2.987-.05-.21-.074-.428-.074-.652 0-1.578 1.28-2.857 2.856-2.857.824 0 1.565.347 2.088.902.65-.128 1.26-.365 1.814-.694-.213.668-.665 1.228-1.256 1.58.578-.067 1.13-.22 1.64-.448-.38.572-.865 1.075-1.423 1.477z" fill="#3B3D98"/>
  </g>
</svg>
